<svg xmlns="http://www.w3.org/2000/svg" xmlns:xlink="http://www.w3.org/1999/xlink" viewBox="0 0 1700 4550"><defs><clipPath id="a"><rect x="1457.93" y="1317.29" width="25.98" height="25.98" transform="translate(-6.88 7.65) rotate(-0.3)" style="fill:none"/></clipPath></defs><path d="M1470.92-9.53V1331.21" style="fill:none;stroke:#000"/><g style="clip-path:url(#a)"><path d="M1471,1340a9.73,9.73,0,1,0-9.77-9.67A9.73,9.73,0,0,0,1471,1340Z" style="fill:none;stroke:#0d0d13;stroke-miterlimit:10;stroke-width:0.25px"/><path d="M1475.42,1330.29a4.44,4.44,0,0,1-.74,2.5,4.5,4.5,0,0,1-7.93-4.18,4.5,4.5,0,0,1,8.67,1.68Z" style="fill:#0d0d13"/><path d="M1471,1341.27l-.13-24" style="fill:none;stroke:#0d0d13;stroke-miterlimit:10;stroke-width:0.25px"/><path d="M1471,1343.26l0-4" style="fill:none;stroke:#0d0d13;stroke-miterlimit:10"/><path d="M1461.2,1330.33l22.71-.12" style="fill:none;stroke:#0d0d13;stroke-miterlimit:10;stroke-width:0.25px"/><path d="M1457.93,1330.34l4,0" style="fill:none;stroke:#0d0d13;stroke-miterlimit:10;stroke-width:0.25px"/></g><path d="M1470.92,1343.33V2684.07" style="fill:none;stroke:#000"/><path d="M196.24,2948.64V4550" style="fill:none;stroke:#000"/></svg>