<svg xmlns="http://www.w3.org/2000/svg" xmlns:xlink="http://www.w3.org/1999/xlink" viewBox="0 0 640.77 4550"><defs><clipPath id="a"><rect x="460.26" y="1151.91" width="22.55" height="22.55" transform="translate(-6.03 2.46) rotate(-0.3)" style="fill:none"/></clipPath></defs><path d="M471.54,0V1164" style="fill:none;stroke:#000"/><g style="clip-path:url(#a)"><path d="M471.58,1171.66a8.45,8.45,0,1,0-8.48-8.4A8.43,8.43,0,0,0,471.58,1171.66Z" style="fill:none;stroke:#0d0d13;stroke-miterlimit:10;stroke-width:0.25px"/><path d="M475.45,1163.2a3.92,3.92,0,0,1-2.4,3.62,3.89,3.89,0,0,1-4.26-.82,3.92,3.92,0,0,1-.87-4.26,3.86,3.86,0,0,1,1.43-1.76,3.91,3.91,0,0,1,6.1,3.22Z" style="fill:#0d0d13"/><path d="M471.59,1172.74l-.11-20.83" style="fill:none;stroke:#0d0d13;stroke-miterlimit:10;stroke-width:0.25px"/><path d="M471.6,1174.46l0-3.44" style="fill:none;stroke:#0d0d13;stroke-miterlimit:10"/><path d="M463.1,1163.23l19.71-.1" style="fill:none;stroke:#0d0d13;stroke-miterlimit:10;stroke-width:0.25px"/><path d="M460.26,1163.25l3.45,0" style="fill:none;stroke:#0d0d13;stroke-miterlimit:10;stroke-width:0.25px"/></g><path d="M471.54,1174.52v1164" style="fill:none;stroke:#000"/><path d="M118.76,2948.64V4550" style="fill:none;stroke:#000"/></svg>