<svg xmlns="http://www.w3.org/2000/svg" xmlns:xlink="http://www.w3.org/1999/xlink" viewBox="0 0 640.77 4550"><defs><clipPath id="a"><rect x="529.24" y="1157.17" width="22.55" height="22.55" transform="translate(-6.05 2.82) rotate(-0.3)" style="fill:none"/></clipPath></defs><path d="M540.51,5.26v1164" style="fill:none;stroke:#000"/><g style="clip-path:url(#a)"><path d="M540.56,1176.92a8.44,8.44,0,1,0-8.49-8.4A8.44,8.44,0,0,0,540.56,1176.92Z" style="fill:none;stroke:#0d0d13;stroke-miterlimit:10;stroke-width:0.25px"/><path d="M544.42,1168.46a3.88,3.88,0,0,1-.64,2.17,3.93,3.93,0,0,1-1.75,1.45,3.91,3.91,0,0,1-5.14-5.08,3.93,3.93,0,0,1,1.44-1.76,3.91,3.91,0,0,1,6.09,3.22Z" style="fill:#0d0d13"/><path d="M540.56,1178l-.1-20.83" style="fill:none;stroke:#0d0d13;stroke-miterlimit:10;stroke-width:0.25px"/><path d="M540.57,1179.73l0-3.45" style="fill:none;stroke:#0d0d13;stroke-miterlimit:10"/><path d="M532.07,1168.49l19.72-.1" style="fill:none;stroke:#0d0d13;stroke-miterlimit:10;stroke-width:0.25px"/><path d="M529.24,1168.51l3.44,0" style="fill:none;stroke:#0d0d13;stroke-miterlimit:10;stroke-width:0.25px"/></g><path d="M540.51,1179.78v1164" style="fill:none;stroke:#000"/><path d="M118.76,2948.64V4550" style="fill:none;stroke:#000"/></svg>