<svg xmlns="http://www.w3.org/2000/svg" viewBox="0 0 263.52 913.44"><g style="opacity:0.13"><path d="M771,973.77H0V0H771ZM.51,973.26h770V.51H.51Z" style="fill:#0d0d14"/><rect x="0.26" y="900.27" width="770.53" height="0.51" style="fill:#0d0d14"/><rect x="0.26" y="875.94" width="770.53" height="0.51" style="fill:#0d0d14"/><rect x="0.26" y="851.6" width="770.53" height="0.51" style="fill:#0d0d14"/><rect x="0.26" y="827.27" width="770.53" height="0.51" style="fill:#0d0d14"/><rect x="0.26" y="802.94" width="770.53" height="0.51" style="fill:#0d0d14"/><rect x="0.26" y="778.61" width="770.53" height="0.51" style="fill:#0d0d14"/><rect x="0.26" y="754.28" width="770.53" height="0.51" style="fill:#0d0d14"/><rect x="0.26" y="729.95" width="770.53" height="0.51" style="fill:#0d0d14"/><rect x="0.26" y="705.62" width="770.53" height="0.51" style="fill:#0d0d14"/><rect x="0.26" y="681.28" width="770.53" height="0.51" style="fill:#0d0d14"/><rect x="0.26" y="656.95" width="770.53" height="0.51" style="fill:#0d0d14"/><rect x="0.26" y="632.62" width="770.53" height="0.51" style="fill:#0d0d14"/><rect x="0.26" y="608.29" width="770.53" height="0.51" style="fill:#0d0d14"/><rect x="0.26" y="583.96" width="770.53" height="0.51" style="fill:#0d0d14"/><rect x="0.26" y="559.63" width="770.53" height="0.51" style="fill:#0d0d14"/><rect x="0.26" y="535.29" width="770.53" height="0.51" style="fill:#0d0d14"/><rect x="0.26" y="510.96" width="770.53" height="0.51" style="fill:#0d0d14"/><rect x="0.26" y="486.63" width="770.53" height="0.51" style="fill:#0d0d14"/><rect x="0.26" y="462.3" width="770.53" height="0.51" style="fill:#0d0d14"/><rect x="0.26" y="437.97" width="770.53" height="0.51" style="fill:#0d0d14"/><rect x="0.26" y="413.64" width="770.53" height="0.51" style="fill:#0d0d14"/><rect x="0.26" y="389.3" width="770.53" height="0.51" style="fill:#0d0d14"/><rect x="0.26" y="364.97" width="770.53" height="0.51" style="fill:#0d0d14"/><rect x="0.26" y="340.64" width="770.53" height="0.51" style="fill:#0d0d14"/><rect x="0.26" y="316.31" width="770.53" height="0.51" style="fill:#0d0d14"/><rect x="0.26" y="291.98" width="770.53" height="0.51" style="fill:#0d0d14"/><rect x="0.26" y="267.65" width="770.53" height="0.51" style="fill:#0d0d14"/><rect x="0.26" y="243.32" width="770.53" height="0.51" style="fill:#0d0d14"/><rect x="0.26" y="218.98" width="770.53" height="0.51" style="fill:#0d0d14"/><rect x="0.26" y="194.65" width="770.53" height="0.51" style="fill:#0d0d14"/><rect x="0.26" y="170.32" width="770.53" height="0.51" style="fill:#0d0d14"/><rect x="0.26" y="145.99" width="770.53" height="0.51" style="fill:#0d0d14"/><rect x="0.26" y="121.66" width="770.53" height="0.51" style="fill:#0d0d14"/><rect x="0.26" y="97.33" width="770.53" height="0.51" style="fill:#0d0d14"/><rect x="0.26" y="72.99" width="770.53" height="0.51" style="fill:#0d0d14"/><rect x="0.26" y="48.66" width="770.53" height="0.51" style="fill:#0d0d14"/><rect x="0.26" y="24.33" width="770.53" height="0.51" style="fill:#0d0d14"/><rect x="240.79" y="0.26" width="0.51" height="973.26" style="fill:#0d0d14"/><rect x="216.71" y="0.26" width="0.51" height="973.26" style="fill:#0d0d14"/><rect x="192.63" y="0.26" width="0.51" height="973.26" style="fill:#0d0d14"/><rect x="168.55" y="0.26" width="0.51" height="973.26" style="fill:#0d0d14"/><rect x="144.47" y="0.26" width="0.51" height="973.26" style="fill:#0d0d14"/><rect x="120.39" y="0.26" width="0.51" height="973.26" style="fill:#0d0d14"/><rect x="96.31" y="0.26" width="0.51" height="973.26" style="fill:#0d0d14"/><rect x="72.24" y="0.26" width="0.51" height="973.26" style="fill:#0d0d14"/><rect x="48.16" y="0.26" width="0.51" height="973.26" style="fill:#0d0d14"/><rect x="24.08" y="0.26" width="0.51" height="973.26" style="fill:#0d0d14"/></g></svg>