<svg xmlns="http://www.w3.org/2000/svg" viewBox="0 0 686.88 540.51"><path d="M513.47,244l16.19,9.11a71.72,71.72,0,0,1-26.31,27.82,70.42,70.42,0,0,1-37.77,10.63q-29.68,0-51.26-21.59t-21.59-51.26q0-30.36,21.59-51.6t51.26-21.25a71.19,71.19,0,0,1,35.58,9.44q16.69,9.45,25.8,23.95l-94.09,83a55,55,0,0,0,60.87,3A53.63,53.63,0,0,0,513.47,244ZM420.39,249l80.6-71.5a52.39,52.39,0,0,0-35.41-13.15q-22.93,0-38.62,15.68t-15.68,38.62A54.05,54.05,0,0,0,420.39,249Z" style="fill:#0d0d14"/><path d="M556.3,258.12q6.74,13.49,22.26,13.49A24.19,24.19,0,0,0,603.18,247a24.56,24.56,0,0,0-4.89-15,22.45,22.45,0,0,0-12.31-8.6l-16.19-4.72a38.07,38.07,0,0,1-19.56-13.32,34.66,34.66,0,0,1-7.42-21.76,36.26,36.26,0,0,1,36.42-36.42,35.93,35.93,0,0,1,20.07,6.07,34.1,34.1,0,0,1,13.32,16.19l-16.86,7.08q-4.05-10.78-16.53-10.79a16.79,16.79,0,0,0-12.81,5.4,17.64,17.64,0,0,0-5.06,12.47q0,13.5,13.15,17.2l16.19,4.73a40.42,40.42,0,0,1,22.43,15.17,43.13,43.13,0,0,1-34.57,69.48,41.56,41.56,0,0,1-22.26-6.24,46.26,46.26,0,0,1-16.19-17Z" style="fill:#0d0d14"/><path d="M189.61,192Q168.34,170.77,138,170.76q-30.69,0-52.6,22.61l-20.25-18.9V478.36H83.71V292.18Q105.6,316.45,138,316.45q30.36,0,51.61-21.58t21.24-51.27Q210.85,213.28,189.61,192Zm-13,90.25Q160.92,297.9,138,297.93a52.42,52.42,0,0,1-38.45-15.87Q83.71,266.22,83.71,243.6A54.13,54.13,0,0,1,138,189.31q22.92,0,38.61,15.68t15.68,38.61Q192.29,266.57,176.61,282.25Z" style="fill:#0d0d14"/><path d="M474.91,434.84,491.1,444a71.79,71.79,0,0,1-26.31,27.82A70.52,70.52,0,0,1,427,482.39q-29.68,0-51.27-21.58t-21.58-51.26q0-30.36,21.58-51.6T427,336.7a71.19,71.19,0,0,1,35.58,9.44q16.69,9.45,25.8,23.95l-94.1,83a55,55,0,0,0,60.88,3A53.63,53.63,0,0,0,474.91,434.84Zm-93.09,5.06,80.61-71.5A52.39,52.39,0,0,0,427,355.25q-22.93,0-38.62,15.68t-15.68,38.62A54,54,0,0,0,381.82,439.9Z" style="fill:#0d0d14"/><path d="M371.48,168.91a80,80,0,0,0-29-28.17c12.59-9,18.87-21.25,18.87-36.74q0-19.26-13.31-32.55a43.93,43.93,0,0,0-32.21-13.34h-61v72.54H237.93l-11.12,18.86h28V249h0V478.36h18.56V409.2l48.23,69.16h22.58l-50.23-71.85,40.8-66.1H312.78l-39.45,64.07v-117h31.05a78,78,0,0,0,78.25-78.25A75.15,75.15,0,0,0,371.48,168.91ZM273.36,76.67h42.48a26.59,26.59,0,0,1,19.06,7.59q7.92,7.59,7.93,19.74a27.32,27.32,0,0,1-7.43,18.71Q328,131,315.84,131H273.36Z" style="fill:#0d0d14"/><path d="M242.53,404.14q0,29.7-21.25,51.26T169.68,477Q140,477,118.42,455.4T96.83,404.14q0-30.31,21.59-51.58t51.26-21.27q30.36,0,51.6,21.27T242.53,404.14Z" style="fill:#a50202"/></svg>